<?xml version="1.0" encoding="UTF-8"?>
<svg id="Warstwa_1" data-name="Warstwa 1" xmlns="http://www.w3.org/2000/svg" viewBox="0 0 117.33 85.32">
  <defs>
    <style>
      .cls-1, .cls-2 {
        fill: #fff;
      }

      .cls-2 {
        stroke: #fff;
        stroke-miterlimit: 10;
      }
    </style>
  </defs>
  <path class="cls-1" d="m49.7,18.56c.09.66.63.83,1.38,1.72.73.87.59,1.17.98,1.33.9.36,2.71-.73,2.8-2.06.06-.96-.8-1.67-1.72-2.41-.61-.49-1.03-.83-1.62-.79-.78.05-1.42.74-1.67,1.38-.08.2-.19.48-.15.84Z"/>
  <path class="cls-1" d="m82.68,18.9c-.42,1,.12,2.06.15,2.11.58,1.11,1.53.84,3.24,2.11.95.71,1.84,1.68,2.51,2.41.77.85,1.33,1.56,1.82,1.43.43-.12.36-.79.88-.98.44-.16.72.21,1.62.49,1.09.34,1.24-.02,2.06.29.91.35.82.84,1.77,1.33.24.12,1.24.64,2.31.39,1.06-.25,1.03-.99,2.51-1.77,1.1-.58,1.3-.27,2.02-.79.67-.49.72-.93,1.67-2.85,1.17-2.36,1.39-2.3,1.43-3,.06-1.29-.72-1.56-.64-3.05.05-1,.45-1.79.64-2.16.66-1.33,1.31-1.44,1.43-2.41.1-.81-.32-1.02-.1-1.72.28-.85,1.07-1.01,1.03-1.47-.04-.48-.93-.52-1.77-1.03-1.51-.91-1.14-2.24-2.56-3.93-1.21-1.45-2.76-2-3.34-2.21-1.49-.53-2.67-.46-4.57-.34-2.56.16-3.85.24-4.91,1.23-.21.2-1.73,1.66-1.33,3.59.26,1.21,1.35,1.26,1.92,2.46.37.77-.07,1.06-.49,4.33-.17,1.34-.12,1.35-.25,1.57-.62,1.14-2.03,1.04-5.11,1.92-3.27.93-3.75,1.62-3.93,2.06Z"/>
  <path class="cls-1" d="m111.58,29.67c.09,1.02.93,2.06,1.97,2.21,1.47.21,2.48-1.48,2.8-2.02.33-.55.79-1.32.49-2.06-.33-.83-1.41-1.13-2.11-1.13-1.51,0-3.29,1.36-3.15,3Z"/>
  <path class="cls-1" d="m110.5,19c.45.33.96-.24,1.87-.15.9.09.98.7,1.82.74.74.03,1.59-.4,1.62-.84.04-.58-1.41-1.24-2.65-1.38-1.21-.13-2.79.19-2.95.88-.06.26.08.58.29.74Z"/>
  <path class="cls-1" d="m81.1,39.3c-.79.27-1.11,1.12-1.28,1.57-.48,1.28-.15,2.47,0,3,.15.53.8,2.73,2.21,3,1.04.2,1.82-.78,2.46-.34.45.31.17.89.64,1.28.65.53,2.12.19,2.9-.64.54-.58.36-1,.88-1.33.75-.48,1.83-.05,2.21.1,1.17.46,1.11,1.03,2.06,1.43.94.39,2.57.5,3.44-.54.58-.69.76-1.79.34-2.56-.45-.84-1.26-.66-2.16-1.52-.21-.2-.69-.72-1.23-2.8-.79-3.05-.16-3.49-.84-4.57-1-1.6-3.33-2.14-5.06-1.97-.46.05-2.46.22-3.74,1.82-.29.37-1.52,1.9-.84,3.19.35.67,1.09.57,2.31,1.23.55.3,1.51.98,2.36,2.06.41.52,1.29,1.64,1.08,1.87-.14.15-.74-.19-1.67-.74-1.23-.72-1.98-1.16-2.85-1.97-.75-.69-.9-1.01-1.57-1.33-.37-.17-1.01-.47-1.67-.25Z"/>
  <path class="cls-1" d="m72.55,41.76c.88-1.34,2.55-1.63,2.8-1.67.74-.12,1.61-.26,2.36.29.68.5,1.18,1.53.84,2.36-.3.73-1.2,1.2-1.52.98-.35-.23.17-1.14-.2-1.43-.48-.38-1.68,1.02-3.54.93-.28-.01-.85-.04-1.03-.39-.18-.36.14-.85.29-1.08Z"/>
  <path class="cls-1" d="m58.2,38.41c.13.18.2.44.15.69-.14.76-1.23.77-2.21,1.57-1.15.93-1.46,2.36-1.52,2.65-.33,1.52.3,2.39-.34,3.05-.32.32-.85.51-1.23.34-.49-.21-.57-.95-.69-2.36-.14-1.58-.21-2.37.15-3.15.29-.62.7-1.01,1.52-1.77.7-.64,1.08-1,1.72-1.23.74-.27,2.01-.44,2.46.2Z"/>
  <path class="cls-1" d="m57.51,45.1c-.09,0-.62,0-.79-.29-.3-.56.77-2.02,2.06-2.26.25-.05.52-.1.64.05.37.43-.64,2.47-1.92,2.51Z"/>
  <path class="cls-1" d="m61.49,43.87c-.43.13-.98-.24-1.03-.74-.04-.37.19-.79.59-.88.34-.08.67.1.84.34.28.43.07,1.13-.39,1.28Z"/>
  <path class="cls-1" d="m63.9,44.12c-.43.14-1.1-.43-1.08-1.03.01-.36.27-.79.64-.84.44-.06.82.44.88.88.05.39-.11.88-.44.98Z"/>
  <path class="cls-1" d="m67.88,42.3c-.21.25-.64.54-.93.39-.28-.14-.29-.58-.29-.64-.03-.82.89-1.68,1.28-1.52.35.14.44,1.19-.05,1.77Z"/>
  <path class="cls-1" d="m72.8,48.49c-.38.04-.45-.79-1.47-1.82-.44-.44-.81-.67-.74-.88.07-.22.55-.26.84-.25.86.05,1.94.78,1.97,1.77.01.52-.26,1.15-.59,1.18Z"/>
  <path class="cls-1" d="m57.61,63.23c.43-1.16.67-1.81.74-2.6.05-.55.16-1.78-.54-2.8-.62-.92-1.26-.75-1.62-1.62-.33-.81.12-1.2-.29-1.97-.38-.7-.88-.62-1.08-1.23-.08-.25-.09-.55.44-1.82.54-1.28.81-1.92,1.13-2.21.42-.37.57-.26,2.6-.88,1.15-.35,1.73-.53,2.41-.84,1.16-.52,1.18-.74,1.77-.84.67-.11,1.03.1,2.6.69,2.74,1.03,2.69.78,3.44,1.28.82.54,1.03.93,2.11,1.47.94.48,1.41.5,1.77.44.69-.11,1.16-.56,1.33-.74.63-.67.41-1.21.98-1.77.42-.41.92-.5,1.43-.59.51-.09,1.24-.13,3.24.44.76.22.93.3,3.1.98,1.05.33,1.49.46,2.11.39.76-.08.82-.35,1.77-.59.54-.14,1.58-.4,2.6-.05,1.13.38.93,1.07,1.97,1.38,1.08.32,1.66-.31,2.7.2.3.15.74.36.88.79.25.76-.7,1.27-.59,2.21.08.64.55.63,1.08,1.52.57.95.6,1.9.64,3.1.02.67.04,1.49-.25,2.51-.29,1.05-.76,1.75-1.13,2.31-.73,1.1-1.48,1.74-1.82,2.02-.59.48-.91.73-1.43.84-.64.13-.93-.1-1.38.15-.63.35-.73,1.18-.74,1.23-.07.63.29,1.16.34,1.23.2.3.38.36.39.59.02.29-.25.51-.49.74-.54.52-.42.64-1.03,1.38-.88,1.06-1.64,1.97-2.65,2.02-.41.02-.85-.24-1.72-.74-1.42-.81-1.34-1.06-2.06-1.38-1.3-.57-3.17-.46-4.18.49-.56.53-.43.93-.93,1.13-.9.36-1.65-.73-2.8-.39-.12.03-.69.22-1.03.74-.42.64-.1,1.2-.54,1.57-.33.28-.85.26-1.18.15-.37-.13-.36-.33-.69-.49-.61-.29-.99.24-1.77.15-.91-.11-1.18-.95-1.62-.79-.33.12-.19.61-.69,1.62-.25.51-.55,1.1-1.13,1.28-.07.02-.55.17-.84-.1-.34-.31.17-1.12,0-1.23-.21-.13-.94.93-1.23.79-.23-.11.13-.84-.1-1.67-.2-.74-.84-.78-.93-1.33-.13-.7,1.01-1.04.93-1.62-.03-.23-.44-.45-1.23-.88-.66-.37-.76-.36-.93-.49-.89-.65.01-2.25-.64-2.7-.35-.24-.62.15-1.28-.1-.6-.23-.56-.62-1.23-.93-.66-.31-1.01-.06-1.23-.34-.27-.33.06-.9.49-2.06Z"/>
  <path class="cls-1" d="m58.5,70.56c.09.19.38.07.84.29.46.23.87.71.93,1.23.02.18,0,.29-.34,1.18-.42,1.11-.51,1.32-.39,1.52.17.29.68.42.93.25.42-.29.01-1.31.34-1.47.29-.14.76.59,1.08.44.27-.12.26-.76.15-1.18-.14-.52-.48-.76-.84-1.13-1.2-1.25-1.08-2.27-1.67-2.31-.56-.04-1.19.85-1.03,1.18Z"/>
  <path class="cls-1" d="m54.61,68.59c.37.66,1.44.94,1.77.59.24-.25.12-.85-.2-1.18-.49-.51-1.46-.43-1.67-.05-.13.24.05.56.1.64Z"/>
  <path class="cls-1" d="m53.04,71.2c.16.18.99-.17.98-.44,0-.16-.31-.35-.59-.29-.39.08-.51.61-.39.74Z"/>
  <path class="cls-1" d="m52.01,75.57c.3.43,1.95.07,2.02-.39.05-.34-.73-1.03-1.43-.74-.51.22-.77.87-.59,1.13Z"/>
  <path class="cls-1" d="m57.61,74.29c.1.2.42.28.64.2.48-.19.44-1.28.2-1.38-.26-.1-1.05.77-.84,1.18Z"/>
  <path class="cls-1" d="m57.71,71.93c.16.1.5-.02.59-.25.14-.33-.3-.74-.49-.69-.22.06-.35.78-.1.93Z"/>
  <path class="cls-1" d="m44.83,65.3c-.49-.02-.85-.96-.88-1.67,0-.18-.04-.93.25-1.03.44-.15,1.68,1.18,1.33,2.11-.11.29-.4.6-.69.59Z"/>
  <path class="cls-1" d="m47.73,65.94c.33.15.86-.06.98-.39.21-.55-.73-1.37-1.08-1.23-.35.14-.44,1.37.1,1.62Z"/>
  <path class="cls-1" d="m45.62,61.17c.2.3,1.01.32,1.23-.1.2-.39-.18-1.01-.54-1.03-.43-.03-.91.79-.69,1.13Z"/>
  <path class="cls-1" d="m49.5,63.77c.07.13.33.14.49.1.56-.15.71-1.12.54-1.23-.21-.13-1.19.81-1.03,1.13Z"/>
  <path class="cls-1" d="m31.96,52.72c0,.2-.19.34-.44.54-.54.43-.92.4-1.23.59-.67.41-.31,1.41-.69,2.95-.14.58-.46,1.88-1.52,2.75-.79.65-2.15,1.18-2.85.64-.27-.21-.45-.58-.44-.93.02-.56.52-.65.98-1.38.64-1,.19-1.58.88-2.36.43-.48.65-.31.93-.74.54-.82-.2-1.58.25-2.36.48-.84,1.85-.84,2.02-.84,1.03.02,2.14.63,2.11,1.13Z"/>
  <path class="cls-1" d="m57.32,22.74c-.73.21-1.61-.45-1.57-.98.02-.36.46-.58.49-.59.7-.33,1.79.22,1.82.79.02.35-.37.68-.74.79Z"/>
  <path class="cls-1" d="m56.19,24.31c-.14.18-.96.06-1.13-.49-.09-.29,0-.69.2-.74.36-.1,1.12.99.93,1.23Z"/>
  <path class="cls-1" d="m53.43,22.39c.12.23.94.31,1.23-.2.2-.35.08-.85-.15-.93-.38-.14-1.25.82-1.08,1.13Z"/>
  <path class="cls-1" d="m47.44,16.74c.37.35,1.08.34,1.57.05.08-.04.55-.33.64-.84.15-.86-.92-1.84-1.62-1.67-.78.19-1.26,1.84-.59,2.46Z"/>
  <path class="cls-1" d="m51.76,11.97c.35.11,1.23-1.1.98-1.47-.14-.21-.63-.18-.93.05-.53.4-.31,1.34-.05,1.43Z"/>
  <path class="cls-1" d="m85.23,25.34c-.31.27-1.34.09-1.52-.64-.17-.67.48-1.32.88-1.28.57.06,1.05,1.56.64,1.92Z"/>
  <path class="cls-1" d="m72.06,24.06c-.01.71,1.26,1.2,1.57.93.33-.29-.09-1.72-.74-1.77-.38-.03-.83.41-.84.84Z"/>
  <path class="cls-1" d="m70.29,25.19c-.25.22-.9-.04-.93-.34-.03-.29.46-.69.79-.54.3.14.36.69.15.88Z"/>
  <path class="cls-1" d="m69.95,23.08c.13.18.44.26.59.15.28-.21.04-1.11-.2-1.13-.21-.02-.65.64-.39.98Z"/>
  <path class="cls-1" d="m110.45,23.47c-.22.03-.75-.74-.44-1.28.12-.2.38-.42.54-.34.34.15.18,1.58-.1,1.62Z"/>
  <path class="cls-1" d="m112.85,25.34c.17.34,1.46.24,1.57-.15.08-.25-.29-.74-.79-.74-.57,0-.9.65-.79.88Z"/>
  <path class="cls-1" d="m107.69,26.42c.23.32,1.46.03,1.52-.39.04-.28-.39-.75-.88-.69-.58.08-.81.84-.64,1.08Z"/>
  <path class="cls-1" d="m86.12,1.31c.28.14,1.06-.43.93-.88-.08-.29-.51-.5-.79-.39-.44.17-.42,1.14-.15,1.28Z"/>
  <path class="cls-1" d="m59.87,5.29c.09.57,1.51.89,1.77.54.22-.3-.23-1.4-.93-1.38-.45.02-.89.49-.84.84Z"/>
  <path class="cls-1" d="m62.38,3.67c.08.35.65.46.84.29.21-.2.01-.89-.29-.93-.25-.04-.62.32-.54.64Z"/>
  <path class="cls-1" d="m105.97,2.54c.22.24.76.16.88-.1.16-.31-.29-.89-.59-.84-.28.05-.54.66-.29.93Z"/>
  <path class="cls-1" d="m71.03,36.35c.16.23.6.21.84.15.47-.12.71-.52.84-.74.21-.36.49-1.07.25-1.28-.26-.23-1.07.19-1.52.74-.07.08-.64.77-.39,1.13Z"/>
  <path class="cls-1" d="m65.92,36.99c-.84,0-1.59-1.11-1.38-1.57.13-.28.66-.42.93-.25.29.19.1.64.39.88.39.32,1.09-.11,1.18.05.09.16-.46.88-1.13.88Z"/>
  <path class="cls-1" d="m66.56,38.61c.38.11,1.17-.95.98-1.23-.14-.21-.94-.18-1.18.34-.16.35-.02.82.2.88Z"/>
  <path class="cls-1" d="m79.38,36.79c-.39.13-1.19-.57-1.08-1.23.06-.33.35-.69.69-.69.4,0,.62.53.69.79.11.44,0,1.03-.29,1.13Z"/>
  <path class="cls-1" d="m86.41,77.29c.07.24.32.46.84.88.8.67,1.21.8,1.18,1.03-.05.37-1.14.28-1.33.84-.12.37.21.79.44,1.08.22.28.66.83,1.18.84.76.01.89-1.11,2.36-2.41.54-.48.54-.35,1.57-1.18,1.42-1.15,1.58-1.54,1.62-1.87.1-.77-.46-1.38-.54-1.47-.08-.09-.75-.81-1.38-.64-.72.2-.62,1.37-1.43,1.62-.21.07-.49,0-1.03-.15-1.31-.34-1.46-.69-1.97-.64-.89.09-1.74,1.31-1.52,2.06Z"/>
  <path class="cls-1" d="m85.63,77.93c.36.12.55.87.25,1.33-.24.35-.79.56-1.08.34-.31-.23-.16-.8-.15-.84.13-.49.64-.95.98-.84Z"/>
  <path class="cls-1" d="m96.93,85.25c.19.17.6,0,.69-.05.64-.28,1.09-1.09.88-1.38-.18-.25-.88-.17-1.28.2-.39.36-.53,1.02-.29,1.23Z"/>
  <path class="cls-1" d="m98.01,76.95c-.16.44.77,1.28,1.08,1.13.27-.13.35-1.13-.2-1.38-.32-.15-.79,0-.88.25Z"/>
  <path class="cls-1" d="m101.06,79.31c.23.37,1.16.23,1.28-.1.1-.31-.43-.97-.88-.84-.36.1-.56.66-.39.93Z"/>
  <path class="cls-1" d="m100.32,76.55c-.13-.34.28-.85.69-1.08.7-.4,1.74-.22,1.87.2.11.36-.46.93-1.03,1.13-.56.2-1.37.14-1.52-.25Z"/>
  <path class="cls-1" d="m102.68,62.1c.18.54.68,1.29,1.43,1.43.08.01.34.05.69-.05,1.37-.39,2.7-2.43,2.06-3.64-.3-.57-.99-.86-1.18-.93-.18-.08-.68-.28-1.18-.2-1.21.2-2.27,2.01-1.82,3.39Z"/>
  <path class="cls-1" d="m102.68,56.6c0,.26.92.75,1.43.34.21-.17.37-.52.25-.69-.25-.35-1.66.03-1.67.34Z"/>
  <path class="cls-1" d="m112.46,66.62c.19.92,1.84,1.16,2.11.79.31-.42-.8-2.11-1.52-1.97-.39.08-.69.7-.59,1.18Z"/>
  <path class="cls-1" d="m115.66,74.78c-.12.74,1.26,1.51,1.57,1.28.32-.25-.16-1.87-.84-1.92-.32-.02-.68.31-.74.64Z"/>
  <path class="cls-1" d="m114.92,77.68c.02.37.67.61.88.44.22-.18.1-.9-.25-.98-.27-.07-.65.25-.64.54Z"/>
  <path class="cls-1" d="m110.94,74.19c0,.47-.87.59-.93,1.13-.03.28.18.54,1.08,1.28,1.55,1.27,1.94,1.34,2.16,1.92.23.61.06,1.2-.1,1.77-.33,1.17-.86,1.14-1.13,2.16-.28,1.08.13,1.73-.34,2.11-.35.28-.86.16-.93.15-.76-.17-.74-.89-1.33-1.03-.8-.19-1.33,1.04-2.41.88-.13-.02-.6-.08-.74-.39-.25-.56,1-1.13,1.08-2.26.04-.49-.25-.98-.84-1.97-.88-1.48-1.25-1.5-1.38-2.16-.23-1.2.8-2.32,1.33-2.9.32-.34,1.83-2,3.34-1.62.53.13,1.14.54,1.13.93Z"/>
  <path class="cls-1" d="m101.94,82.3c.24.16.86-.03.98-.49.14-.52-.45-1-.74-.93-.38.09-.59,1.19-.25,1.43Z"/>
  <path class="cls-1" d="m103.71,84.66c-.06.26.26.63.54.59.33-.04.52-.64.34-.84-.18-.2-.81-.07-.88.25Z"/>
  <path class="cls-1" d="m68.57,79.8c.3.11,1.03-.7.88-.98-.09-.19-.63-.29-.93.05-.3.34-.15.86.05.93Z"/>
  <path class="cls-1" d="m68.33,77.98c.17.13.66,0,.79-.39.13-.42-.28-.81-.49-.79-.31.04-.55.99-.29,1.18Z"/>
  <path class="cls-1" d="m82.97,72.38c-.13.48,1.16,1.43,1.43,1.23.23-.18-.04-1.42-.74-1.52-.26-.04-.63.07-.69.29Z"/>
  <path class="cls-1" d="m92.56,71c-.55-.09-.8-.82-1.03-1.47-.16-.47-.3-.86-.1-1.18.24-.39.83-.45,1.18-.39.7.11,1.43.78,1.38,1.62-.05.82-.82,1.52-1.43,1.43Z"/>
  <path class="cls-1" d="m43.06,76.55c.29.34.82.28.93.1.17-.29-.52-1.18-.84-1.08-.21.06-.41.62-.1.98Z"/>
  <path class="cls-1" d="m16.57,56.7c.15.48.68.88,1.23.93,1,.09,1.3-1.06,2.65-1.18.64-.06,1.05.15,1.23-.1.19-.26.02-.84-.34-1.08-.47-.32-.91.17-1.77,0-.78-.16-.83-.64-1.38-.64-.84,0-1.9,1.16-1.62,2.06Z"/>
  <path class="cls-1" d="m15.05,60.33c-.01.44,1.09.92,1.33.69.2-.2-.02-1.11-.59-1.18-.34-.04-.73.23-.74.49Z"/>
  <path class="cls-1" d="m20.95,61.66c.11.32,1.48.33,1.62-.05.08-.21-.22-.6-.59-.69-.58-.14-1.11.5-1.03.74Z"/>
  <path class="cls-1" d="m17.16,59.45c.28.19,1.09-.34,1.03-.64-.05-.23-.64-.51-.98-.2-.26.24-.23.71-.05.84Z"/>
  <path class="cls-1" d="m18.88,59.99c-.08-.4.57-.88.88-.74.3.14.4.91.05,1.13-.3.19-.87-.06-.93-.39Z"/>
  <path class="cls-1" d="m5.37,44.61c-.14.33.28.77.34.84.31.32.92.63,1.47.34.48-.25.76-.87.59-1.23-.31-.64-2.17-.53-2.41.05Z"/>
  <path class="cls-1" d="m3.06,46.47c.12.22.78.32,1.08-.1.27-.37.08-.91-.15-.98-.35-.12-1.1.77-.93,1.08Z"/>
  <path class="cls-1" d="m18,51.59c.02.36.61.61.93.69.05.01,1.04.24,1.33-.29.23-.41-.09-1.06-.54-1.28-.71-.35-1.75.39-1.72.88Z"/>
  <path class="cls-1" d="m17.7,11.09c.19.14.74-.03.79-.39.05-.34-.36-.65-.59-.59-.3.08-.43.81-.2.98Z"/>
  <path class="cls-1" d="m23.36,13.05c-.33.15-.4.78-.15,1.18.21.32.67.54.93.39.33-.18.33-.89,0-1.28-.18-.21-.53-.41-.79-.29Z"/>
  <path class="cls-1" d="m9.15,14.87c.25.33,1.49.05,1.57-.44.06-.32-.38-.81-.84-.79-.62.03-.94.95-.74,1.23Z"/>
  <path class="cls-1" d="m15.64,4.55c-.09.24.39.73.64.64.18-.07.33-.5.1-.74s-.67-.08-.74.1Z"/>
  <path class="cls-1" d="m14.56,9.91c.09.49.93.68,1.18.44.28-.26,0-1.22-.44-1.28-.34-.05-.82.42-.74.84Z"/>
  <path class="cls-1" d="m59.87,22.74c.23.25,1.21-.1,1.23-.49.01-.26-.4-.62-.79-.54-.49.1-.63.83-.44,1.03Z"/>
  <path class="cls-1" d="m81.94,2.49c.04.49,1.07.78,1.28.54.2-.23-.18-1.19-.69-1.18-.3,0-.62.35-.59.64Z"/>
  <path class="cls-1" d="m107.84,23.52c.05.14.41.26.64.05.23-.21.13-.58,0-.64-.2-.1-.72.38-.64.59Z"/>
  <path class="cls-1" d="m106.02,5.14c.14.67,1.09.86,1.33.64.31-.3-.24-1.67-.74-1.67-.31,0-.69.53-.59,1.03Z"/>
  <path class="cls-1" d="m111.97,75.27c.13.42,1.3.53,1.47.2.14-.26-.22-1.02-.79-.98-.43.03-.77.51-.69.79Z"/>
  <path class="cls-2" d="m13.62,46.52c.6-1.8.81-1.98.79-2.65,0-.27-.04-1.38-.93-2.16-.52-.46-1.44-.89-2.26-.64-.93.29-.96,1.21-2.06,1.47-.31.07-.58.07-1.13.05-1.03-.03-1.28-.25-1.72-.05-.52.24-.46.68-.88.79-.57.14-1.19-.53-1.43-.79-.86-.93-1.01-2.07-1.08-2.65-.06-.53-.1-1.49.29-2.51.31-.79.65-1.04.79-1.13.42-.27.72-.18,1.08-.29,1.16-.36,1.52-2.37,1.62-2.9.16-.88.26-2.39-.1-4.08-.16-.76-.37-1.35-.05-1.92.26-.45.8-.77,1.33-.84.94-.11,1.26.66,2.11.59.82-.07,1.39-.86,1.77-1.38.88-1.21.52-1.92,1.33-2.56.66-.52,1.01-.12,1.77-.69.91-.67.71-1.45,1.47-1.77.62-.26.89.2,1.82.05.54-.09.97-.39,1.82-.98,1.38-.97,1.47-1.34,2.36-1.72.58-.25,1.63-.57,1.92-.2.2.26-.18.63-.34,1.77-.09.63-.16,1.18.15,1.62.11.15.2.21.98.59,1.51.73,1.75.81,2.06.74.42-.09.46-.32.79-.29.48.03.98.57,1.08,1.13.14.75-.51,1.04-.34,1.67.17.65.93.67.98,1.23.03.35-.26.44-.74,1.18-.65,1.01-.45,1.38-.98,1.82-.54.45-.86.16-1.33.59-.29.27-.4.6-.64,2.02-.32,1.89-.22,1.77-.34,2.06-.47,1.11-1.16.94-1.67,2.16-.11.27-.4.98-.25,1.82.08.46.21.48.29.88.16.79-.2,1.27-.49,2.21-.49,1.6.05,1.78-.39,2.41-.81,1.14-2.49.41-3.24,1.62-.31.5-.25.98-.79,1.38-.47.34-.82.2-.98.49-.26.47.57,1.03.49,1.92-.06.64-.55,1.08-.84,1.33-.09.08-1.38,1.18-2.9.64-.07-.02-1.36-.5-1.67-1.67-.07-.25-.1-.58.49-2.36Z"/>
  <path class="cls-1" d="m21.78,13.25c.53,1.16-1.3,3.8-3.69,4.91-.53.25-.67.22-1.43.59-1.5.73-1.64,1.16-2.7,1.57-1.11.43-2.53.58-2.75.15-.12-.25.16-.62.25-.74.74-.98,1.95-.44,2.56-1.23.54-.69-.14-1.48.49-2.26.22-.28.59-.42,1.33-.69,1.75-.64,2.28-.39,2.9-.98.27-.26.46-.65.84-1.43.43-.88.53-1.4.84-1.43.18-.02.37.2.74.64.12.14.51.6.64.88Z"/>
  <path class="cls-1" d="m15.64,12.27c.22.16.8-.15.79-.44,0-.25-.42-.52-.69-.39-.29.14-.3.7-.1.84Z"/>
  <path class="cls-1" d="m51.12,23.67c.22.27.76.19.88-.05.16-.29-.29-.89-.59-.84-.26.05-.53.6-.29.88Z"/>
  <path class="cls-1" d="m73.19,7.06c.13.13.5.04.69-.2.29-.37,0-.96-.2-.98-.27-.03-.72.95-.49,1.18Z"/>
  <path class="cls-1" d="m54.91,12.96c-.09.29-.19.66-.05,1.03.2.52.73.66,1.38.98.72.36,2.12,1.07,2.36,2.11.13.56-.08,1.23-.39,2.26-.16.54-.32.87-.15,1.13.2.3.67.26,1.23.29,1.45.08,1.5.5,2.7.59,1.36.1,2.45-.34,2.8-.49,1.29-.57,1.19-1.13,2.7-1.87.37-.18,2.08-.98,2.65-.39.24.24.14.57.44.79.42.3,1.1,0,1.23-.05,1.51-.65,1.14-2.56,2.36-3.05.24-.1.31-.04,2.95.59,1.56.37,1.98.46,2.51.29.71-.22,1.11-.74,1.62-1.43,1.2-1.61,1.46-3.17,1.77-5.01.22-1.31.18-1.95-.2-2.41-.18-.22-.37-.31-.88-.79-.63-.59-.59-.86-.93-.98-.65-.22-1.38.4-1.43.44-.53.46-.37.83-.74,1.28-.76.92-2.79,1.03-4.18.34-.73-.36-1-.79-1.62-.74-.66.06-.71.58-1.38.84-1.03.4-1.69-.54-3.78-.93-.8-.15-1.47-.27-2.31-.1-1,.21-1.25.63-3.29,1.62-.92.45-1.39.67-1.72.69-.78.03-1.16-.32-2.8-.59-.67-.11-.92-.1-1.13.05-.4.3-.13.77-.44,1.57-.36.93-.98.92-1.28,1.92Z"/>
  <path class="cls-1" d="m105.73,29.22c-.68,0-2.15,0-2.21-.34-.06-.36,1.43-1.26,2.02-.74.35.31.22.97.2,1.08Z"/>
  <path class="cls-1" d="m98.75,82.3c.17.33.99.3,1.13,0,.13-.27-.23-.88-.64-.84-.36.04-.63.57-.49.84Z"/>
  <path class="cls-1" d="m49.5,76.26c-.07.69,1.14,1.28,1.38,1.08.26-.22-.35-1.68-.88-1.67-.24,0-.47.32-.49.59Z"/>
  <path class="cls-1" d="m48.13,79.85c.17.1.72-.17.69-.59-.02-.29-.31-.54-.49-.49-.29.07-.42.96-.2,1.08Z"/>
  <path class="cls-1" d="m.16,31.34c.22.23.61.23.69.1.14-.22-.46-.97-.69-.88-.15.05-.26.51,0,.79Z"/>
  <path class="cls-1" d="m2.71,34.04c.14.11.61,0,.69-.34.07-.31-.22-.61-.39-.59-.26.03-.49.78-.29.93Z"/>
  <path class="cls-1" d="m1.63,29.27c-.08-.11.06-.34.15-.44.42-.51,1.44-.29,1.47-.1.04.24-1.42.81-1.62.54Z"/>
  <path class="cls-1" d="m17.21,8.48c.02.26.64.46.79.29.13-.14.02-.64-.29-.69-.25-.04-.51.21-.49.39Z"/>
</svg>
