<?xml version="1.0" encoding="utf-8"?>
<!-- Generator: Adobe Illustrator 27.3.1, SVG Export Plug-In . SVG Version: 6.00 Build 0)  -->
<svg version="1.1" id="Warstwa_1" xmlns="http://www.w3.org/2000/svg" xmlns:xlink="http://www.w3.org/1999/xlink" x="0px" y="0px"
	 viewBox="0 0 566.9 97.9" style="enable-background:new 0 0 566.9 97.9;" xml:space="preserve">
<style type="text/css">
	.st0{opacity:0.18;}
	.st1{fill:#1D1D1B;}
	.st2{fill:#F4F4F4;}
</style>
<g class="st0">
	<path class="st1" d="M549.7,7c5.8,0,10.5,4.7,10.5,10.5v63.2c0,5.8-4.7,10.5-10.5,10.5H83.2c-5.8,0-10.5-4.7-10.5-10.5V17.5
		C72.8,11.7,77.5,7,83.2,7H549.7 M549.7,1H83.2c-9.1,0-16.5,7.4-16.5,16.5v63.2c0,9.1,7.4,16.5,16.5,16.5h466.5
		c9.1,0,16.5-7.4,16.5-16.5V17.5C566.2,8.4,558.8,1,549.7,1L549.7,1z"/>
</g>
<g>
	<path class="st2" d="M549.7,91.2H83.2c-5.8,0-10.5-4.7-10.5-10.5V17.5C72.8,11.7,77.5,7,83.2,7h466.5c5.8,0,10.5,4.7,10.5,10.5
		v63.2C560.2,86.5,555.5,91.2,549.7,91.2z"/>
</g>
<g>
	<path d="M108.6,39.5c1.7,1.4,2.5,3.6,2.5,6.6c0,3-0.9,5.1-2.6,6.5c-1.7,1.4-4.4,2.1-7.9,2.1h-3.2v6.7H92v-24h8.5
		C104.2,37.4,106.9,38.1,108.6,39.5z M104.6,49c0.6-0.7,1-1.8,1-3.2c0-1.4-0.4-2.4-1.3-3c-0.8-0.6-2.1-0.9-3.9-0.9h-3.1v8.1h3.6
		C102.8,50.1,104,49.7,104.6,49z"/>
	<path d="M133.1,52.2c0,2.7-0.9,4.9-2.8,6.8c-1.9,1.8-4.2,2.8-7,2.8c-2.8,0-5.1-0.9-7-2.8c-1.9-1.8-2.8-4.1-2.8-6.8s0.9-4.9,2.8-6.8
		c1.9-1.8,4.2-2.8,7-2.8c2.8,0,5.1,0.9,7,2.8C132.1,47.2,133.1,49.5,133.1,52.2z M118.7,52.2c0,1.5,0.4,2.7,1.3,3.7
		c0.9,1,2,1.4,3.3,1.4s2.4-0.5,3.3-1.4c0.9-1,1.3-2.2,1.3-3.7s-0.4-2.8-1.3-3.7c-0.9-1-2-1.4-3.3-1.4s-2.4,0.5-3.3,1.4
		C119.1,49.4,118.7,50.7,118.7,52.2z"/>
	<path d="M146.2,61.4h-5.3l-6.3-18.5h5.3l3.6,11.2l3.6-11.2h5l3.6,11.2l3.6-11.2h5.4l-6.3,18.5H153l-3.4-10.1L146.2,61.4z"/>
	<path d="M177.3,47.5c-1.5,0-2.7,0.5-3.4,1.6c-0.8,1.1-1.1,2.5-1.1,4.3v8h-5.2V42.9h5.2v2.4c0.7-0.8,1.5-1.4,2.5-1.9
		c1-0.5,2-0.8,3-0.8l0,4.8H177.3z"/>
	<path d="M200.2,52.2c0,2.7-0.9,4.9-2.8,6.8c-1.9,1.8-4.2,2.8-7,2.8c-2.8,0-5.1-0.9-7-2.8c-1.9-1.8-2.8-4.1-2.8-6.8s0.9-4.9,2.8-6.8
		c1.9-1.8,4.2-2.8,7-2.8c2.8,0,5.1,0.9,7,2.8C199.2,47.2,200.2,49.5,200.2,52.2z M185.8,52.2c0,1.5,0.4,2.7,1.3,3.7
		c0.9,1,2,1.4,3.3,1.4c1.3,0,2.4-0.5,3.3-1.4c0.9-1,1.3-2.2,1.3-3.7s-0.4-2.8-1.3-3.7c-0.9-1-2-1.4-3.3-1.4c-1.3,0-2.4,0.5-3.3,1.4
		C186.2,49.4,185.8,50.7,185.8,52.2z M192.3,40.4h-4.9l4.4-6.1l5.3,2.2L192.3,40.4z"/>
	<path d="M210.1,46.6v8.3c0,0.7,0.2,1.3,0.6,1.7c0.4,0.4,0.8,0.6,1.3,0.6c1,0,1.8-0.4,2.4-1.3l1.9,3.6c-1.6,1.5-3.3,2.2-5.1,2.2
		c-1.8,0-3.3-0.6-4.5-1.8c-1.2-1.2-1.8-2.8-1.8-4.8v-8.5h-2.2v-3.7h2.2v-5.5h5.2v5.5h4.5v3.7H210.1z"/>
	<path d="M235.6,61.7c-2.2,0-4.1-0.9-5.9-2.8c-1.7-1.9-2.6-4.2-2.6-6.9s0.8-5,2.5-6.8c1.7-1.8,3.6-2.6,5.9-2.6
		c2.2,0,4.1,0.8,5.5,2.4v-9.1h5.2v25.5H241V59C239.6,60.8,237.8,61.7,235.6,61.7z M232.3,52.2c0,1.5,0.4,2.7,1.3,3.7
		c0.9,1,1.9,1.4,3.1,1.4c1.2,0,2.2-0.5,3-1.4c0.8-1,1.3-2.2,1.3-3.7c0-1.5-0.4-2.8-1.3-3.7c-0.8-1-1.9-1.5-3.1-1.5
		c-1.2,0-2.3,0.5-3.1,1.5C232.8,49.5,232.3,50.7,232.3,52.2z"/>
	<path d="M269.6,52.2c0,2.7-0.9,4.9-2.8,6.8c-1.9,1.8-4.2,2.8-7,2.8c-2.8,0-5.1-0.9-7-2.8c-1.9-1.8-2.8-4.1-2.8-6.8s0.9-4.9,2.8-6.8
		c1.9-1.8,4.2-2.8,7-2.8c2.8,0,5.1,0.9,7,2.8C268.6,47.2,269.6,49.5,269.6,52.2z M255.2,52.2c0,1.5,0.4,2.7,1.3,3.7
		c0.9,1,2,1.4,3.3,1.4c1.3,0,2.4-0.5,3.3-1.4c0.9-1,1.3-2.2,1.3-3.7s-0.4-2.8-1.3-3.7c-0.9-1-2-1.4-3.3-1.4c-1.3,0-2.4,0.5-3.3,1.4
		C255.6,49.4,255.2,50.7,255.2,52.2z"/>
	<path d="M296.4,55.7c0,1.8-0.7,3.3-2,4.4c-1.3,1.1-3,1.7-5.1,1.7c-1.4,0-2.8-0.2-4.3-0.7c-1.5-0.5-2.8-1.2-4-2.2l2.3-3.2
		c1.9,1.5,4,2.2,6.2,2.2c0.7,0,1.2-0.1,1.6-0.4c0.4-0.3,0.6-0.6,0.6-1c0-0.4-0.3-0.8-0.8-1.2c-0.5-0.4-1.3-0.7-2.3-1
		c-1-0.3-1.8-0.6-2.3-0.8c-0.5-0.2-1.2-0.6-1.8-1c-1.4-0.9-2.1-2.2-2.1-3.9s0.7-3.1,2.1-4.2c1.4-1.1,3.2-1.6,5.3-1.6
		c2.2,0,4.4,0.7,6.5,2.2l-1.9,3.4c-1.6-1.1-3.2-1.7-4.8-1.7s-2.4,0.4-2.4,1.3c0,0.5,0.3,0.9,0.8,1.1c0.5,0.3,1.3,0.6,2.5,1
		c1.2,0.4,2,0.6,2.5,0.8c0.5,0.2,1.1,0.5,1.8,0.9C295.8,52.5,296.4,53.8,296.4,55.7z"/>
	<path d="M306.4,46.6v8.3c0,0.7,0.2,1.3,0.6,1.7c0.4,0.4,0.8,0.6,1.3,0.6c1,0,1.8-0.4,2.4-1.3l1.9,3.6c-1.6,1.5-3.3,2.2-5.1,2.2
		c-1.8,0-3.3-0.6-4.5-1.8c-1.2-1.2-1.8-2.8-1.8-4.8v-8.5H299v-3.7h2.2v-5.5h5.2v5.5h4.5v3.7H306.4z"/>
	<path d="M325.1,47.5c-1.5,0-2.7,0.5-3.4,1.6c-0.8,1.1-1.1,2.5-1.1,4.3v8h-5.2V42.9h5.2v2.4c0.7-0.8,1.5-1.4,2.5-1.9
		c1-0.5,2-0.8,3-0.8l0,4.8H325.1z"/>
	<path d="M347.7,52.2c0,2.7-0.9,4.9-2.8,6.8c-1.9,1.8-4.2,2.8-7,2.8c-2.8,0-5.1-0.9-7-2.8c-1.9-1.8-2.8-4.1-2.8-6.8s0.9-4.9,2.8-6.8
		c1.9-1.8,4.2-2.8,7-2.8c2.8,0,5.1,0.9,7,2.8C346.8,47.2,347.7,49.5,347.7,52.2z M333.3,52.2c0,1.5,0.4,2.7,1.3,3.7
		c0.9,1,2,1.4,3.3,1.4c1.3,0,2.4-0.5,3.3-1.4c0.9-1,1.3-2.2,1.3-3.7s-0.4-2.8-1.3-3.7c-0.9-1-2-1.4-3.3-1.4c-1.3,0-2.4,0.5-3.3,1.4
		C333.8,49.4,333.3,50.7,333.3,52.2z"/>
	<path d="M356.7,51.1v10.3h-5.2V42.9h5.2V45c1.6-1.6,3.3-2.4,5.3-2.4c1.9,0,3.6,0.7,4.9,2.1c1.3,1.4,2,3.2,2,5.5v11.2h-5.2V51
		c0-2.8-1-4.3-3.1-4.3c-1,0-1.9,0.4-2.7,1.1C357.1,48.6,356.7,49.7,356.7,51.1z"/>
	<path d="M376.4,68.7c-1.8,0-3.5-0.7-5.1-2.2l2.3-3.8c0.9,0.8,1.8,1.3,2.7,1.3c0.5,0,0.9-0.2,1.2-0.7c0.3-0.5,0.5-1,0.5-1.5
		c0-0.5-2.4-6.8-7.2-18.8h5.5l4.5,11.5l4.5-11.5h5.5l-8.6,21.8c-0.5,1.3-1.3,2.2-2.4,2.9S377.7,68.7,376.4,68.7z"/>
	<path d="M416.2,58.3c-1.6,1.8-3.7,2.7-6.1,2.7c-2.4,0-4.5-0.8-6.1-2.5c-1.7-1.6-2.5-3.8-2.5-6.6c0-2.7,0.9-5,2.6-6.7
		c1.7-1.8,3.7-2.6,5.9-2.6c2.2,0,4,0.9,5.5,2.7v-2.4h5.2V59c0,1.7-0.3,3.1-0.9,4.4c-0.6,1.3-1.3,2.3-2.3,3c-1.9,1.5-4.2,2.3-6.7,2.3
		c-1.4,0-2.8-0.2-4.2-0.7c-1.4-0.4-2.7-1.1-3.8-1.9l2-3.9c1.7,1.3,3.5,1.9,5.4,1.9s3.4-0.5,4.5-1.4S416.2,60.3,416.2,58.3z
		 M415.5,51.8c0-1.5-0.4-2.6-1.2-3.5c-0.8-0.8-1.8-1.3-3.1-1.3c-1.2,0-2.3,0.4-3.1,1.3c-0.9,0.8-1.3,2-1.3,3.5
		c0,1.5,0.4,2.7,1.3,3.6c0.9,0.9,1.9,1.4,3.1,1.4c1.2,0,2.3-0.4,3.1-1.3C415.1,54.5,415.5,53.3,415.5,51.8z"/>
	<path d="M426.9,37.4h5.2v10.3l2.4-0.7v4.7l-2.4,0.7v9h-5.2v-7.6l-2.6,0.8V50l2.6-0.8V37.4z"/>
	<path d="M456.5,52.2c0,2.7-0.9,4.9-2.8,6.8c-1.9,1.8-4.2,2.8-7,2.8c-2.8,0-5.1-0.9-7-2.8c-1.9-1.8-2.8-4.1-2.8-6.8s0.9-4.9,2.8-6.8
		c1.9-1.8,4.2-2.8,7-2.8c2.8,0,5.1,0.9,7,2.8C455.6,47.2,456.5,49.5,456.5,52.2z M442.1,52.2c0,1.5,0.4,2.7,1.3,3.7
		c0.9,1,2,1.4,3.3,1.4c1.3,0,2.4-0.5,3.3-1.4c0.9-1,1.3-2.2,1.3-3.7s-0.4-2.8-1.3-3.7c-0.9-1-2-1.4-3.3-1.4c-1.3,0-2.4,0.5-3.3,1.4
		C442.5,49.4,442.1,50.7,442.1,52.2z M448.6,40.4h-4.9l4.4-6.1l5.3,2.2L448.6,40.4z"/>
	<path d="M469.9,61.4h-5.3l-6.3-18.5h5.3l3.6,11.2l3.6-11.2h5l3.6,11.2l3.6-11.2h5.4l-6.3,18.5h-5.4l-3.4-10.1L469.9,61.4z"/>
	<path d="M496.4,51.1v10.3h-5.2V42.9h5.2V45c1.6-1.6,3.3-2.4,5.3-2.4c1.9,0,3.6,0.7,4.9,2.1c1.3,1.4,2,3.2,2,5.5v11.2h-5.2V51
		c0-2.8-1-4.3-3.1-4.3c-1,0-1.9,0.4-2.7,1.1C496.8,48.6,496.4,49.7,496.4,51.1z"/>
	<path d="M529.3,58.8c-2.1,2-4.5,3-7.3,3c-2.8,0-5.1-0.9-7-2.6c-1.8-1.7-2.8-4.1-2.8-7c0-2.9,0.9-5.2,2.8-6.9
		c1.9-1.7,4.1-2.6,6.6-2.6s4.7,0.8,6.5,2.3c1.8,1.5,2.7,3.6,2.7,6.3V54h-13.5c0.2,1,0.7,1.8,1.6,2.5c0.9,0.6,1.9,1,3,1
		c1.8,0,3.3-0.6,4.5-1.8L529.3,58.8z M524.3,47.8c-0.7-0.6-1.6-0.9-2.6-0.9c-1,0-2,0.3-2.8,0.9c-0.8,0.6-1.3,1.5-1.5,2.5h8.1
		C525.5,49.2,525,48.4,524.3,47.8z"/>
	<path d="M536.3,61.8V42.9h5.2v19.3c0,2-0.6,3.6-1.8,4.8c-1.2,1.2-2.7,1.8-4.5,1.8s-3.5-0.7-5.1-2.2l2.4-3.8
		c0.7,0.8,1.5,1.2,2.3,1.2c0.5,0,0.8-0.2,1.1-0.5C536.1,63,536.3,62.5,536.3,61.8z M536.7,40.6c-0.6-0.6-0.9-1.3-0.9-2.1
		c0-0.8,0.3-1.6,0.9-2.1c0.6-0.6,1.3-0.9,2.1-0.9c0.8,0,1.6,0.3,2.1,0.9c0.6,0.6,0.9,1.3,0.9,2.1c0,0.8-0.3,1.6-0.9,2.1
		c-0.6,0.6-1.3,0.9-2.1,0.9C538,41.5,537.3,41.2,536.7,40.6z"/>
</g>
</svg>
